<svg width="18" height="12" viewBox="0 0 18 12" fill="none" xmlns="http://www.w3.org/2000/svg">
<path fill-rule="evenodd" clip-rule="evenodd" d="M17.7537 6.42729C17.7535 6.61789 17.6969 6.80416 17.5909 6.96258C17.4849 7.121 17.3344 7.24446 17.1583 7.31738C16.9822 7.39029 16.7885 7.40938 16.6015 7.37225C16.4146 7.33511 16.2428 7.24341 16.108 7.10872L14.5677 5.56844L11.0911 9.24558C10.9193 9.42288 10.7142 9.56449 10.4875 9.66224C10.2608 9.76 10.017 9.81199 9.77019 9.81522C9.52334 9.81844 9.27829 9.77284 9.04912 9.68104C8.81995 9.58924 8.61119 9.45305 8.43483 9.28029V9.28158L8.42583 9.27258L6.2234 7.07144L2.43826 10.8579C2.19701 11.0991 1.8698 11.2347 1.52862 11.2347C1.18743 11.2347 0.860226 11.0991 0.618974 10.8579C0.377722 10.6166 0.242188 10.2894 0.242188 9.94822C0.242187 9.60704 0.377722 9.27983 0.618974 9.03858L4.90426 4.75458L4.91326 4.74558C5.26338 4.40265 5.73396 4.21059 6.22405 4.21059C6.71413 4.21059 7.18471 4.40265 7.53483 4.74558L7.54383 4.75458L9.73083 6.94158L12.7484 3.75044L11.4113 2.41329C11.2766 2.27844 11.1849 2.10669 11.1477 1.91975C11.1106 1.73281 11.1297 1.53906 11.2026 1.36296C11.2755 1.18687 11.399 1.03633 11.5574 0.930359C11.7158 0.824391 11.9021 0.767746 12.0927 0.767578H16.7881C17.0439 0.767578 17.2891 0.869172 17.47 1.05001C17.6508 1.23085 17.7524 1.47612 17.7524 1.73186V6.42729H17.7537Z" fill="#2C2C2C"/>
</svg>
