<svg width="22" height="23" viewBox="0 0 22 23" fill="none" xmlns="http://www.w3.org/2000/svg">
<path d="M19.7099 5.63914L13.4699 1.27331C11.7691 0.0816407 9.15826 0.146641 7.52243 1.41414L2.09493 5.64997C1.0116 6.49497 0.155762 8.22831 0.155762 9.59331V17.0683C0.155762 19.8308 2.39826 22.0841 5.16076 22.0841H16.8391C19.6016 22.0841 21.8441 19.8416 21.8441 17.0791V9.73414C21.8441 8.27164 20.9016 6.47331 19.7099 5.63914ZM11.8124 17.7508C11.8124 18.195 11.4441 18.5633 10.9999 18.5633C10.5558 18.5633 10.1874 18.195 10.1874 17.7508V14.5008C10.1874 14.0566 10.5558 13.6883 10.9999 13.6883C11.4441 13.6883 11.8124 14.0566 11.8124 14.5008V17.7508Z" fill="#C2C2C2"/>
</svg>
