<svg width="22" height="22" viewBox="0 0 22 22" fill="none" xmlns="http://www.w3.org/2000/svg">
<path fill-rule="evenodd" clip-rule="evenodd" d="M1.6104 1.6104C0 3.223 0 5.8146 0 11C0 16.1854 0 18.7781 1.6104 20.3885C3.223 22 5.8146 22 11 22C16.1854 22 18.7781 22 20.3885 20.3885C22 18.7792 22 16.1854 22 11C22 5.8146 22 3.2219 20.3885 1.6104C18.7792 0 16.1854 0 11 0C5.8146 0 3.2219 0 1.6104 1.6104ZM12.925 8.8C12.925 9.2554 13.2946 9.625 13.75 9.625H14.509L12.2947 11.8393C12.2692 11.8649 12.2388 11.8852 12.2054 11.8991C12.172 11.913 12.1362 11.9201 12.1 11.9201C12.0638 11.9201 12.028 11.913 11.9946 11.8991C11.9612 11.8852 11.9308 11.8649 11.9053 11.8393L10.1607 10.0947C9.79973 9.73399 9.31031 9.53136 8.8 9.53136C8.28969 9.53136 7.80027 9.73399 7.4393 10.0947L4.917 12.617C4.83594 12.6925 4.77093 12.7836 4.72584 12.8848C4.68075 12.986 4.6565 13.0953 4.65455 13.206C4.6526 13.3168 4.67297 13.4268 4.71447 13.5296C4.75596 13.6323 4.81772 13.7256 4.89606 13.8039C4.9744 13.8823 5.06772 13.944 5.17044 13.9855C5.27317 14.027 5.3832 14.0474 5.49397 14.0455C5.60475 14.0435 5.71399 14.0192 5.81519 13.9742C5.91639 13.9291 6.00747 13.8641 6.083 13.783L8.6053 11.2607C8.63085 11.2351 8.66119 11.2148 8.6946 11.2009C8.72801 11.187 8.76383 11.1799 8.8 11.1799C8.83617 11.1799 8.87199 11.187 8.9054 11.2009C8.93881 11.2148 8.96916 11.2351 8.9947 11.2607L10.7393 13.0053C11.1003 13.366 11.5897 13.5686 12.1 13.5686C12.6103 13.5686 13.0997 13.366 13.4607 13.0053L15.675 10.7921V11.55C15.675 11.7688 15.7619 11.9786 15.9166 12.1334C16.0714 12.2881 16.2812 12.375 16.5 12.375C16.7188 12.375 16.9286 12.2881 17.0834 12.1334C17.2381 11.9786 17.325 11.7688 17.325 11.55V8.8C17.325 8.5812 17.2381 8.37136 17.0834 8.21664C16.9286 8.06192 16.7188 7.975 16.5 7.975H13.75C13.5312 7.975 13.3214 8.06192 13.1666 8.21664C13.0119 8.37136 12.925 8.5812 12.925 8.8Z" fill="#C2C2C2"/>
</svg>
