<svg width="20" height="20" viewBox="0 0 20 20" fill="none" xmlns="http://www.w3.org/2000/svg">
<path d="M8.82547 20C8.37547 20 7.98814 19.85 7.66347 19.55C7.3388 19.25 7.1428 18.8833 7.07547 18.45L6.85047 16.8C6.6338 16.7167 6.4298 16.6167 6.23847 16.5C6.04714 16.3833 5.85947 16.2583 5.67547 16.125L4.12547 16.775C3.7088 16.9583 3.29214 16.975 2.87547 16.825C2.4588 16.675 2.1338 16.4083 1.90047 16.025L0.725469 13.975C0.492135 13.5917 0.425469 13.1833 0.525469 12.75C0.625469 12.3167 0.850469 11.9583 1.20047 11.675L2.52547 10.675C2.5088 10.5583 2.50047 10.4457 2.50047 10.337V9.662C2.50047 9.554 2.5088 9.44167 2.52547 9.325L1.20047 8.325C0.850469 8.04167 0.625469 7.68333 0.525469 7.25C0.425469 6.81667 0.492135 6.40833 0.725469 6.025L1.90047 3.975C2.1338 3.59167 2.4588 3.325 2.87547 3.175C3.29214 3.025 3.7088 3.04167 4.12547 3.225L5.67547 3.875C5.8588 3.74167 6.05047 3.61667 6.25047 3.5C6.45047 3.38333 6.65047 3.28333 6.85047 3.2L7.07547 1.55C7.14214 1.11667 7.33814 0.75 7.66347 0.45C7.9888 0.15 8.37613 0 8.82547 0H11.1755C11.6255 0 12.0131 0.15 12.3385 0.45C12.6638 0.75 12.8595 1.11667 12.9255 1.55L13.1505 3.2C13.3671 3.28333 13.5715 3.38333 13.7635 3.5C13.9555 3.61667 14.1428 3.74167 14.3255 3.875L15.8755 3.225C16.2921 3.04167 16.7088 3.025 17.1255 3.175C17.5421 3.325 17.8671 3.59167 18.1005 3.975L19.2755 6.025C19.5088 6.40833 19.5755 6.81667 19.4755 7.25C19.3755 7.68333 19.1505 8.04167 18.8005 8.325L17.4755 9.325C17.4921 9.44167 17.5005 9.55433 17.5005 9.663V10.337C17.5005 10.4457 17.4838 10.5583 17.4505 10.675L18.7755 11.675C19.1255 11.9583 19.3505 12.3167 19.4505 12.75C19.5505 13.1833 19.4838 13.5917 19.2505 13.975L18.0505 16.025C17.8171 16.4083 17.4921 16.675 17.0755 16.825C16.6588 16.975 16.2421 16.9583 15.8255 16.775L14.3255 16.125C14.1421 16.2583 13.9505 16.3833 13.7505 16.5C13.5505 16.6167 13.3505 16.7167 13.1505 16.8L12.9255 18.45C12.8588 18.8833 12.6631 19.25 12.3385 19.55C12.0138 19.85 11.6261 20 11.1755 20H8.82547ZM10.0505 13.5C11.0171 13.5 11.8421 13.1583 12.5255 12.475C13.2088 11.7917 13.5505 10.9667 13.5505 10C13.5505 9.03333 13.2088 8.20833 12.5255 7.525C11.8421 6.84167 11.0171 6.5 10.0505 6.5C9.06713 6.5 8.2378 6.84167 7.56247 7.525C6.88714 8.20833 6.5498 9.03333 6.55047 10C6.55114 10.9667 6.8888 11.7917 7.56347 12.475C8.23814 13.1583 9.06713 13.5 10.0505 13.5Z" fill="#C2C2C2"/>
</svg>
