<svg width="18" height="18" viewBox="0 0 18 18" fill="none" xmlns="http://www.w3.org/2000/svg">
<path d="M8.9974 0.916016C13.5999 0.916016 17.3307 4.64685 17.3307 9.24935C17.3307 13.8518 13.5999 17.5827 8.9974 17.5827C4.3949 17.5827 0.664062 13.8518 0.664062 9.24935C0.664062 4.64685 4.3949 0.916016 8.9974 0.916016ZM8.9974 4.24935C8.77638 4.24935 8.56442 4.33715 8.40814 4.49343C8.25186 4.64971 8.16406 4.86167 8.16406 5.08268V9.24935C8.16411 9.47034 8.25194 9.68227 8.40823 9.83852L10.9082 12.3385C11.0654 12.4903 11.2759 12.5743 11.4944 12.5724C11.7129 12.5705 11.9219 12.4829 12.0764 12.3284C12.2309 12.1739 12.3186 11.9648 12.3205 11.7463C12.3224 11.5279 12.2384 11.3174 12.0866 11.1602L9.83073 8.90435V5.08268C9.83073 4.86167 9.74293 4.64971 9.58665 4.49343C9.43037 4.33715 9.21841 4.24935 8.9974 4.24935Z" fill="#A4A4A4"/>
</svg>
