<svg width="17" height="17" viewBox="0 0 17 17" fill="none" xmlns="http://www.w3.org/2000/svg">
<path d="M15.6361 4.29732L11.0249 8.88309L15.6361 13.4689C16.4224 14.2508 16.4224 15.5149 15.6361 16.2969C15.244 16.6869 14.7292 16.8828 14.2144 16.8828C13.6996 16.8828 13.1848 16.6869 12.7926 16.2969L8.18129 11.7109L3.56993 16.2969C3.17778 16.6869 2.66302 16.8828 2.14819 16.8828C1.63337 16.8828 1.1186 16.6869 0.726453 16.2969C-0.0598594 15.5149 -0.0598594 14.2508 0.726453 13.4689L5.33769 8.88309L0.726453 4.29732C-0.0598594 3.51535 -0.0598594 2.25126 0.726453 1.46929C1.51277 0.687319 2.78362 0.687319 3.56993 1.46929L8.18129 6.05531L12.7926 1.46929C13.579 0.687319 14.8498 0.687319 15.6361 1.46929C16.4224 2.25126 16.4224 3.51535 15.6361 4.29732Z" fill="#A4A4A4"/>
</svg>
