<svg width="24" height="24" viewBox="0 0 24 24" fill="none" xmlns="http://www.w3.org/2000/svg">
<path d="M14 13C14 14.1 13.1 15 12 15C10.9 15 10 14.1 10 13C10 11.9 10.9 11 12 11C13.1 11 14 11.9 14 13ZM21.5 11V16C21.5 18.48 19.48 20.5 17 20.5H7C4.52 20.5 2.5 18.48 2.5 16V11C2.5 8.61 4.37001 6.65001 6.73001 6.51001L7.98999 4.61011C8.45999 3.92011 9.23001 3.5 10.07 3.5H13.93C14.77 3.5 15.54 3.92011 16.01 4.61011L17.27 6.51001C19.63 6.65001 21.5 8.61 21.5 11ZM16 13C16 10.79 14.21 9 12 9C9.79 9 8 10.79 8 13C8 15.21 9.79 17 12 17C14.21 17 16 15.21 16 13ZM19 10C19 9.45 18.55 9 18 9C17.45 9 17 9.45 17 10C17 10.55 17.45 11 18 11C18.55 11 19 10.55 19 10Z" fill="#A4A4A4"/>
</svg>
