<svg width="22" height="19" viewBox="0 0 22 19" fill="none" xmlns="http://www.w3.org/2000/svg">
<path d="M3.96331 18.5H17.1776V3.96429H15.8562V1.98214C15.8562 0.887422 14.9687 0 13.874 0H7.26688C6.17216 0 5.28474 0.887422 5.28474 1.98214V3.96429H3.96331V18.5ZM7.92759 2.64286H13.2133V3.96429H7.92759V2.64286ZM21.1419 5.94643V16.5179C21.1419 17.6126 20.2545 18.5 19.1597 18.5H18.499V3.96429H19.1597C20.2545 3.96429 21.1419 4.85171 21.1419 5.94643ZM2.64188 18.5H1.98117C0.886445 18.5 -0.000976562 17.6126 -0.000976562 16.5179V5.94643C-0.000976562 4.85171 0.886445 3.96429 1.98117 3.96429H2.64188V18.5ZM14.5347 9.91071V11.2321C14.5347 11.5971 14.2389 11.8929 13.874 11.8929H11.8919V13.875C11.8919 14.2399 11.5961 14.5357 11.2312 14.5357H9.90974C9.54482 14.5357 9.24902 14.2399 9.24902 13.875V11.8929H7.26688C6.90196 11.8929 6.60617 11.5971 6.60617 11.2321V9.91071C6.60617 9.54579 6.90196 9.25 7.26688 9.25H9.24902V7.26786C9.24902 6.90294 9.54482 6.60714 9.90974 6.60714H11.2312C11.5961 6.60714 11.8919 6.90294 11.8919 7.26786V9.25H13.874C14.2389 9.25 14.5347 9.54579 14.5347 9.91071Z" fill="#108E8E"/>
</svg>
