<svg width="14" height="20" viewBox="0 0 14 20" fill="none" xmlns="http://www.w3.org/2000/svg">
<path fill-rule="evenodd" clip-rule="evenodd" d="M6.66684 0C4.36556 0 2.5 1.86556 2.5 4.16684V10.8338C2.5 13.135 4.36556 15.0006 6.66684 15.0006C8.9681 15.0006 10.8337 13.135 10.8337 10.8338V4.16684C10.8337 1.86556 8.9681 0 6.66684 0Z" fill="#A4A4A4"/>
<path d="M1.66673 9.65563C1.66673 9.19536 1.29362 8.82227 0.833367 8.82227C0.373115 8.82227 0 9.19536 0 9.65563V11.3714C0 14.5598 2.60306 17.0774 5.83357 17.4512V18.3325H4.16684C3.70658 18.3325 3.33347 18.7056 3.33347 19.1659C3.33347 19.6261 3.70658 19.9992 4.16684 19.9992H9.16704C9.62731 19.9992 10.0004 19.6261 10.0004 19.1659C10.0004 18.7056 9.62731 18.3325 9.16704 18.3325H7.50031V17.4512C10.7309 17.0774 13.3339 14.5598 13.3339 11.3714V9.65563C13.3339 9.19536 12.9608 8.82227 12.5005 8.82227C12.0402 8.82227 11.6671 9.19536 11.6671 9.65563V11.3714C11.6671 13.7609 9.50639 15.8324 6.66694 15.8324C3.82751 15.8324 1.66673 13.7609 1.66673 11.3714V9.65563Z" fill="#A4A4A4"/>
</svg>
