<svg width="20" height="22" viewBox="0 0 20 22" fill="none" xmlns="http://www.w3.org/2000/svg">
<path d="M19.2087 5.58511C19.2087 14.6429 17.9011 19.0585 10.1498 21.2718C10.1011 21.2858 10.0512 21.2934 10.0014 21.2934C9.95155 21.2934 9.90176 21.2858 9.85301 21.2718C2.10067 19.0563 0.791992 14.6861 0.791992 5.72476C0.791992 5.48209 0.953424 5.2698 1.18634 5.20372C5.34959 4.0283 8.52049 1.96576 9.63633 0.865096C9.73924 0.764346 9.88439 0.686299 10.0209 0.709049C10.1639 0.710133 10.3015 0.768552 10.4022 0.870386C11.4108 1.89305 15.6683 4.01203 18.8382 5.06936C19.0592 5.14519 19.2087 5.35219 19.2087 5.58511Z" fill="#A4A4A4"/>
</svg>
