<svg width="22" height="21" viewBox="0 0 22 21" fill="none" xmlns="http://www.w3.org/2000/svg">
<path d="M2.33073 10.9993H5.58073C6.15536 10.9993 6.70646 11.2276 7.11279 11.634C7.51912 12.0403 7.7474 12.5914 7.7474 13.166V18.5827C7.7474 19.1573 7.51912 19.7084 7.11279 20.1147C6.70646 20.5211 6.15536 20.7493 5.58073 20.7493H2.33073C1.75609 20.7493 1.20499 20.5211 0.798664 20.1147C0.392336 19.7084 0.164063 19.1573 0.164062 18.5827V10.9993C0.164062 5.0161 5.01415 0.166016 10.9974 0.166016C16.9806 0.166016 21.8307 5.0161 21.8307 10.9993V18.5827C21.8307 19.1573 21.6025 19.7084 21.1961 20.1147C20.7898 20.5211 20.2387 20.7493 19.6641 20.7493H16.4141C15.8394 20.7493 15.2883 20.5211 14.882 20.1147C14.4757 19.7084 14.2474 19.1573 14.2474 18.5827V13.166C14.2474 12.5914 14.4757 12.0403 14.882 11.634C15.2883 11.2276 15.8394 10.9993 16.4141 10.9993H19.6641C19.6641 8.70081 18.751 6.49641 17.1257 4.87109C15.5003 3.24578 13.2959 2.33268 10.9974 2.33268C8.69885 2.33268 6.49445 3.24578 4.86914 4.87109C3.24382 6.49641 2.33073 8.70081 2.33073 10.9993Z" fill="#A4A4A4"/>
</svg>
