<svg width="19" height="19" viewBox="0 0 19 19" fill="none" xmlns="http://www.w3.org/2000/svg">
<path d="M18.6304 4.58971V14.294C18.6304 15.3106 17.9778 16.3273 16.9525 16.6969L12.2915 18.453C12.0119 18.5454 11.7323 18.6378 11.3594 18.6378C10.8933 18.6378 10.334 18.453 9.86795 18.1758C9.6815 17.9909 9.40186 17.806 9.30859 17.6211H5.76635C4.36809 17.6211 3.15625 16.5121 3.15625 15.0334V14.1092C3.15625 13.7395 3.43591 13.3698 3.90199 13.3698C4.36809 13.3698 4.64774 13.647 4.64774 14.1092V15.0334C4.64774 15.6804 5.20704 16.1424 5.76635 16.1424H8.84251V2.8337H5.76635C5.11382 2.8337 4.64774 3.29581 4.64774 3.94276V4.86697C4.64774 5.23666 4.36809 5.60635 3.90199 5.60635C3.43591 5.60635 3.15625 5.23666 3.15625 4.86697V3.94276C3.15625 2.55643 4.27487 1.35495 5.76635 1.35495H9.30859C9.49504 1.1701 9.6815 0.985259 9.86795 0.800415C10.6137 0.338306 11.4526 0.245884 12.2915 0.52315L16.9525 2.27917C17.8846 2.55643 18.6304 3.57307 18.6304 4.58971Z" fill="#A4A4A4"/>
<path d="M2.96946 12.0763C2.78303 12.0763 2.59659 11.984 2.50338 11.8915L0.639025 10.0431C0.545808 9.95064 0.545809 9.85828 0.452592 9.85828C0.452592 9.76583 0.359375 9.67338 0.359375 9.58103C0.359375 9.48858 0.359375 9.39613 0.452592 9.30377C0.452592 9.21132 0.545808 9.11887 0.639025 9.11887L2.50338 7.27045C2.78303 6.99318 3.24912 6.99318 3.52877 7.27045C3.80842 7.54772 3.80842 8.00984 3.52877 8.2871L2.87624 8.93406H6.69817C7.07103 8.93406 7.4439 9.21132 7.4439 9.67338C7.4439 10.1355 7.07103 10.228 6.69817 10.228H2.78303L3.43555 10.8749C3.7152 11.1521 3.7152 11.6143 3.43555 11.8915C3.34234 11.984 3.1559 12.0763 2.96946 12.0763Z" fill="#A4A4A4"/>
</svg>
