<svg width="21" height="22" viewBox="0 0 21 22" fill="none" xmlns="http://www.w3.org/2000/svg">
<path fill-rule="evenodd" clip-rule="evenodd" d="M9.91406 0.166016C8.47747 0.166016 7.09972 0.736698 6.0839 1.75252C5.06808 2.76834 4.4974 4.14609 4.4974 5.58268C4.4974 7.01927 5.06808 8.39702 6.0839 9.41284C7.09972 10.4287 8.47747 10.9993 9.91406 10.9993C11.3507 10.9993 12.7284 10.4287 13.7442 9.41284C14.76 8.39702 15.3307 7.01927 15.3307 5.58268C15.3307 4.14609 14.76 2.76834 13.7442 1.75252C12.7284 0.736698 11.3507 0.166016 9.91406 0.166016ZM9.91406 12.0827C7.31948 12.0827 4.95781 12.8345 3.22123 13.894C2.35456 14.4227 1.61356 15.0467 1.0784 15.7248C0.551896 16.39 0.164062 17.1884 0.164062 18.041C0.164062 18.9564 0.609313 19.6779 1.25065 20.1925C1.85731 20.68 2.6579 21.0028 3.50831 21.2282C5.21781 21.6799 7.49931 21.8327 9.91406 21.8327C10.164 21.8327 10.4113 21.8309 10.6561 21.8273C10.8376 21.8248 11.0155 21.7767 11.1735 21.6876C11.3316 21.5984 11.4647 21.471 11.5607 21.317C11.6566 21.163 11.7124 20.9874 11.7228 20.8063C11.7332 20.6251 11.698 20.4442 11.6203 20.2803C11.2095 19.4108 10.9968 18.461 10.9974 17.4993C10.9974 16.143 11.4123 14.8863 12.1208 13.8453C12.2261 13.6906 12.2896 13.5112 12.3049 13.3247C12.3203 13.1382 12.2871 12.9508 12.2086 12.781C12.13 12.6111 12.0088 12.4645 11.8567 12.3554C11.7046 12.2463 11.5269 12.1785 11.3408 12.1585C10.8743 12.108 10.3987 12.0827 9.91406 12.0827ZM15.9656 14.4357C15.7612 14.2383 15.4876 14.1291 15.2035 14.1316C14.9195 14.1341 14.6478 14.248 14.4469 14.4489C14.2461 14.6497 14.1321 14.9215 14.1297 15.2055C14.1272 15.4895 14.2364 15.7632 14.4337 15.9675L15.9656 17.4993L14.4337 19.0312C14.3303 19.1311 14.2477 19.2507 14.191 19.3828C14.1342 19.515 14.1043 19.6572 14.103 19.801C14.1018 19.9448 14.1292 20.0875 14.1837 20.2206C14.2381 20.3538 14.3186 20.4747 14.4203 20.5764C14.522 20.6782 14.643 20.7586 14.7761 20.8131C14.9093 20.8675 15.0519 20.895 15.1957 20.8937C15.3396 20.8925 15.4817 20.8626 15.6139 20.8058C15.7461 20.749 15.8656 20.6665 15.9656 20.563L17.4974 19.0312L19.0292 20.563C19.1292 20.6665 19.2487 20.749 19.3809 20.8058C19.513 20.8626 19.6552 20.8925 19.799 20.8937C19.9429 20.895 20.0855 20.8675 20.2187 20.8131C20.3518 20.7586 20.4728 20.6782 20.5745 20.5764C20.6762 20.4747 20.7567 20.3538 20.8111 20.2206C20.8656 20.0875 20.893 19.9448 20.8918 19.801C20.8905 19.6572 20.8606 19.515 20.8038 19.3828C20.7471 19.2507 20.6645 19.1311 20.5611 19.0312L19.0292 17.4993L20.5611 15.9675C20.7584 15.7632 20.8676 15.4895 20.8651 15.2055C20.8627 14.9215 20.7487 14.6497 20.5479 14.4489C20.347 14.248 20.0753 14.1341 19.7912 14.1316C19.5072 14.1291 19.2335 14.2383 19.0292 14.4357L17.4974 15.9675L15.9656 14.4357Z" fill="#A4A4A4"/>
</svg>
