<svg width="23" height="20" viewBox="0 0 23 20" fill="none" xmlns="http://www.w3.org/2000/svg">
<path fill-rule="evenodd" clip-rule="evenodd" d="M7.66672 0.791016C8.69589 0.791016 9.60589 1.4551 9.92114 2.43443L14.6304 17.0854C14.7584 17.4947 14.7195 17.9379 14.5222 18.3186C14.3248 18.6993 13.985 18.9865 13.5768 19.1177C13.1686 19.249 12.725 19.2135 12.3428 19.0191C11.9606 18.8247 11.6708 18.4871 11.5364 18.0799L10.1573 13.791H5.17614L3.79706 18.0799C3.66268 18.4871 3.37281 18.8247 2.99061 19.0191C2.60841 19.2135 2.16487 19.249 1.75664 19.1177C1.34842 18.9865 1.0086 18.6993 0.811248 18.3186C0.613896 17.9379 0.575007 17.4947 0.703057 17.0854L5.41231 2.43443C5.56627 1.95767 5.86721 1.54188 6.27199 1.24666C6.67678 0.951438 7.16572 0.791937 7.66672 0.791016ZM21.2084 9.99935C21.6394 9.99935 22.0527 10.1706 22.3574 10.4753C22.6622 10.78 22.8334 11.1934 22.8334 11.6243V17.041C22.8333 17.3459 22.7475 17.6446 22.5857 17.9031C22.4239 18.1615 22.1927 18.3692 21.9184 18.5024C21.6442 18.6356 21.338 18.689 21.0349 18.6564C20.7317 18.6239 20.4438 18.5067 20.2041 18.3183C19.5451 18.5995 18.8266 18.7129 18.113 18.6484C17.3994 18.5839 16.7129 18.3434 16.115 17.9485C15.5172 17.5536 15.0265 17.0166 14.6871 16.3856C14.3476 15.7546 14.17 15.0492 14.17 14.3327C14.17 13.6162 14.3476 12.9108 14.6871 12.2798C15.0265 11.6488 15.5172 11.1118 16.115 10.7169C16.7129 10.322 17.3994 10.0815 18.113 10.017C18.8266 9.95243 19.5451 10.0659 20.2041 10.3471C20.4804 10.1293 20.8292 9.99935 21.2084 9.99935ZM18.5001 13.2493C18.2127 13.2493 17.9372 13.3635 17.734 13.5667C17.5309 13.7698 17.4167 14.0454 17.4167 14.3327C17.4167 14.62 17.5309 14.8956 17.734 15.0987C17.9372 15.3019 18.2127 15.416 18.5001 15.416C18.7874 15.416 19.0629 15.3019 19.2661 15.0987C19.4693 14.8956 19.5834 14.62 19.5834 14.3327C19.5834 14.0454 19.4693 13.7698 19.2661 13.5667C19.0629 13.3635 18.7874 13.2493 18.5001 13.2493ZM7.66672 6.04085L6.22047 10.541H9.11297L7.66672 6.04085Z" fill="#A4A4A4"/>
</svg>
