<svg width="24" height="24" viewBox="0 0 24 24" fill="none" xmlns="http://www.w3.org/2000/svg">
<path d="M18.002 3H6.00195C4.89738 3 4.00195 3.89543 4.00195 5V19C4.00195 20.1046 4.89738 21 6.00195 21H18.002C19.1065 21 20.002 20.1046 20.002 19V5C20.002 3.89543 19.1065 3 18.002 3Z" fill="#6FB0AD" fill-opacity="0.24"/>
<path d="M8.50195 6.5H15.502" stroke="#6FB0AD" stroke-linecap="round"/>
<path d="M8.50195 9.5H12.502" stroke="#6FB0AD" stroke-linecap="round"/>
<path d="M8.50195 12.5H14.502" stroke="#6FB0AD" stroke-linecap="round"/>
<path d="M4.00195 19C4.00195 17.8954 4.89738 17 6.00195 17H17.002C17.9339 17 18.3998 17 18.7674 16.8478C19.2574 16.6448 19.6468 16.2554 19.8498 15.7654C20.002 15.3978 20.002 14.9319 20.002 14V17C20.002 18.8856 20.002 19.8284 19.4162 20.4142C18.8304 21 17.8876 21 16.002 21H6.00195C4.89738 21 4.00195 20.1046 4.00195 19Z" fill="#6FB0AD"/>
</svg>
