<svg width="18" height="22" viewBox="0 0 18 22" fill="none" xmlns="http://www.w3.org/2000/svg">
<path d="M9.00082 2.18757e-06C9.77059 -0.000606362 10.5352 0.125756 11.2638 0.374002C10.5733 1.08786 10.1384 2.01009 10.0268 2.99696C9.91519 3.98384 10.1332 4.97991 10.6468 5.82993C11.1605 6.67996 11.9409 7.33618 12.8665 7.69633C13.792 8.05648 14.8107 8.10031 15.7638 7.821L16.0008 7.743V10.527C16.001 10.643 16.0213 10.758 16.0608 10.867L16.1068 10.974L17.8228 14.407C17.9023 14.566 17.9421 14.7419 17.9388 14.9196C17.9355 15.0974 17.8891 15.2717 17.8037 15.4276C17.7183 15.5835 17.5963 15.7164 17.4483 15.8148C17.3003 15.9133 17.1306 15.9744 16.9538 15.993L16.8388 15.999H1.16283C0.984989 15.9991 0.809792 15.956 0.652246 15.8735C0.4947 15.791 0.359504 15.6715 0.258242 15.5254C0.15698 15.3792 0.0926725 15.2106 0.0708294 15.0341C0.0489862 14.8576 0.0702592 14.6785 0.132825 14.512L0.178825 14.407L1.89583 10.974C1.94743 10.8702 1.98059 10.7582 1.99383 10.643L2.00083 10.528V7C2.00083 5.14349 2.73832 3.36301 4.05108 2.05025C5.36383 0.7375 7.14431 2.18757e-06 9.00082 2.18757e-06ZM14.5008 1C15.1639 1 15.7998 1.26339 16.2686 1.73224C16.7374 2.20108 17.0008 2.83696 17.0008 3.5C17.0008 4.16304 16.7374 4.79893 16.2686 5.26777C15.7998 5.73661 15.1639 6 14.5008 6C13.8378 6 13.2019 5.73661 12.7331 5.26777C12.2642 4.79893 12.0008 4.16304 12.0008 3.5C12.0008 2.83696 12.2642 2.20108 12.7331 1.73224C13.2019 1.26339 13.8378 1 14.5008 1ZM9.00082 19C8.38017 19.0003 7.7747 18.8081 7.26784 18.4499C6.76099 18.0917 6.37771 17.5852 6.17083 17H11.8308C11.6239 17.5852 11.2407 18.0917 10.7338 18.4499C10.227 18.8081 9.62148 19.0003 9.00082 19Z" fill="#A4A4A4"/>
</svg>
