<svg width="24" height="22" viewBox="0 0 24 22" fill="none" xmlns="http://www.w3.org/2000/svg">
<path d="M20.8824 0.166016H9.32682V3.77713H12.2157V5.22157H2.82682C1.59905 5.22157 0.660156 6.16046 0.660156 7.38824V15.3327C0.660156 16.5605 1.59905 17.4993 2.82682 17.4993H3.54905V21.1827L8.09905 17.4993H12.9379V12.4438H20.8824C22.1102 12.4438 23.049 11.5049 23.049 10.2771V2.33268C23.049 1.1049 22.1102 0.166016 20.8824 0.166016ZM8.46016 14.5382L8.09905 13.3827H5.86016L5.42682 14.5382H3.69349L6.07682 8.11046H7.81016L10.1935 14.5382H8.46016ZM19.4379 8.83268V10.2771C18.499 10.2771 17.4879 9.98824 16.6213 9.5549C15.7546 9.98824 14.7435 10.2049 13.7324 10.2771L13.6602 8.83268C14.1657 8.83268 14.6713 8.76046 15.1768 8.61602C14.5268 7.96602 14.0935 7.17157 13.8768 6.3049H15.3935C15.6102 6.95491 16.0435 7.46046 16.549 7.89379C17.3435 7.24379 17.849 6.3049 17.9213 5.22157H13.5879V3.77713H15.7546V2.33268H17.199V3.77713H19.5824L19.6546 4.49935C19.7268 6.01602 19.149 7.53268 18.0657 8.61602C18.5713 8.76046 19.0046 8.83268 19.4379 8.83268Z" fill="black"/>
</svg>
