<svg width="22" height="22" viewBox="0 0 22 22" fill="none" xmlns="http://www.w3.org/2000/svg">
<path d="M11.0003 0.166016C5.03116 0.166016 0.166992 5.03018 0.166992 10.9993C0.166992 16.9685 5.03116 21.8327 11.0003 21.8327C16.9695 21.8327 21.8337 16.9685 21.8337 10.9993C21.8337 5.03018 16.9695 0.166016 11.0003 0.166016ZM11.0003 16.416C10.4045 16.416 9.91699 15.9285 9.91699 15.3327C9.91699 14.7368 10.4045 14.2493 11.0003 14.2493C11.5962 14.2493 12.0837 14.7368 12.0837 15.3327C12.0837 15.9285 11.5962 16.416 11.0003 16.416ZM12.0837 10.9993C12.0837 11.5952 11.5962 12.0827 11.0003 12.0827C10.4045 12.0827 9.91699 11.5952 9.91699 10.9993V6.66602C9.91699 6.07018 10.4045 5.58268 11.0003 5.58268C11.5962 5.58268 12.0837 6.07018 12.0837 6.66602V10.9993Z" fill="#A4A4A4"/>
</svg>
