<svg width="20" height="20" viewBox="0 0 20 20" fill="none" xmlns="http://www.w3.org/2000/svg">
<path d="M0 4.5C0 5.053 0.448 5.5 1 5.5H19C19.552 5.5 20 5.053 20 4.5C20 3.947 19.552 3.5 19 3.5H15.441C15.01 3.5 14.629 3.22592 14.492 2.81592L14.176 1.86792C13.903 1.04992 13.14 0.5 12.279 0.5H7.71997C6.85797 0.5 6.095 1.04994 5.823 1.86694L5.50702 2.81689C5.37102 3.22489 4.98898 3.5 4.55798 3.5H1C0.448 3.5 0 3.947 0 4.5ZM2.70001 7.53003L3.31 16.73C3.44 18.57 4.98 20 6.81 20H13.19C15.02 20 16.56 18.57 16.69 16.74L17.3 7.53003C17.31 7.40003 17.26 7.25991 17.17 7.15991C17.07 7.05991 16.94 7 16.8 7H3.20001C3.06001 7 2.93002 7.05991 2.83002 7.15991C2.74002 7.25991 2.69001 7.40003 2.70001 7.53003ZM11 10.5C11 9.95 11.45 9.5 12 9.5C12.55 9.5 13 9.95 13 10.5V15.5C13 16.05 12.55 16.5 12 16.5C11.45 16.5 11 16.05 11 15.5V10.5ZM7 10.5C7 9.95 7.45 9.5 8 9.5C8.55 9.5 9 9.95 9 10.5V15.5C9 16.05 8.55 16.5 8 16.5C7.45 16.5 7 16.05 7 15.5V10.5Z" fill="#DC2626"/>
</svg>
