<svg width="18" height="15" viewBox="0 0 18 15" fill="none" xmlns="http://www.w3.org/2000/svg">
<path d="M17.3334 3.7793V11.6668C17.3335 12.3045 17.0898 12.9181 16.6523 13.382C16.2149 13.846 15.6167 14.1252 14.9801 14.1626L14.8334 14.1668H3.16675C2.52907 14.1668 1.91549 13.9232 1.45153 13.4857C0.987576 13.0483 0.708325 12.45 0.670915 11.8135L0.666748 11.6668V3.7793L8.53758 9.0268L8.63425 9.0818C8.74817 9.13746 8.87329 9.16639 9.00008 9.16639C9.12687 9.16639 9.25199 9.13746 9.36591 9.0818L9.46258 9.0268L17.3334 3.7793Z" fill="#DADADA"/>
<path d="M14.8334 0.833984C15.7334 0.833984 16.5226 1.30898 16.9626 2.02315L9.0001 7.33148L1.0376 2.02315C1.24659 1.68384 1.53367 1.3994 1.87491 1.19356C2.21614 0.987716 2.60164 0.866432 2.99926 0.839818L3.16676 0.833984H14.8334Z" fill="#DADADA"/>
</svg>
