<svg width="18" height="20" viewBox="0 0 18 20" fill="none" xmlns="http://www.w3.org/2000/svg">
<path d="M15.925 1.38718C15.6438 1.10583 15.3099 0.882668 14.9424 0.730441C14.575 0.578213 14.1811 0.499907 13.7833 0.5C13.3855 0.500093 12.9917 0.578583 12.6243 0.730982C12.2568 0.883381 11.9231 1.1067 11.642 1.38818L2.135 10.9082C1.56853 11.4759 1.25028 12.2451 1.25 13.0472V16.2502C1.25 16.6642 1.586 17.0002 2 17.0002H5.223C6.026 17.0002 6.796 16.6802 7.363 16.1132L16.863 6.60718C17.4297 6.03915 17.7479 5.26954 17.7479 4.46718C17.7479 3.66481 17.4297 2.8952 16.863 2.32718L15.925 1.38718ZM1 18.5002C0.801088 18.5002 0.610322 18.5792 0.46967 18.7198C0.329018 18.8605 0.25 19.0513 0.25 19.2502C0.25 19.4491 0.329018 19.6399 0.46967 19.7805C0.610322 19.9212 0.801088 20.0002 1 20.0002H17C17.1989 20.0002 17.3897 19.9212 17.5303 19.7805C17.671 19.6399 17.75 19.4491 17.75 19.2502C17.75 19.0513 17.671 18.8605 17.5303 18.7198C17.3897 18.5792 17.1989 18.5002 17 18.5002H1Z" fill="#A4A4A4"/>
</svg>
