<svg width="18" height="11" viewBox="0 0 18 11" fill="none" xmlns="http://www.w3.org/2000/svg">
<path d="M8.46777 0.484894C12.1197 0.484894 15.2206 2.47512 16.5303 5.26614C15.2208 8.05762 12.1201 10.0484 8.46777 10.0484C4.81551 10.0483 1.71463 8.05767 0.405273 5.26614C1.71487 2.47508 4.81589 0.485007 8.46777 0.484894ZM8.46777 1.46536C7.36241 1.46544 6.29504 1.85681 5.50195 2.564C4.70736 3.27274 4.25098 4.24454 4.25098 5.26712C4.25111 6.28954 4.70748 7.26062 5.50195 7.96927C6.29505 8.67647 7.36239 9.06783 8.46777 9.0679C9.57336 9.0679 10.6414 8.67665 11.4346 7.96927C12.229 7.26062 12.6854 6.28954 12.6855 5.26712C12.6855 4.24454 12.2292 3.27274 11.4346 2.564C10.6414 1.85664 9.57334 1.46536 8.46777 1.46536ZM8.46777 3.57474C8.99544 3.57474 9.4947 3.76184 9.85645 4.0845C10.2168 4.40594 10.4102 4.83282 10.4102 5.26712C10.41 5.70125 10.2166 6.12744 9.85645 6.44876C9.4947 6.77143 8.99544 6.95853 8.46777 6.95853C7.94027 6.95845 7.44175 6.77131 7.08008 6.44876C6.71983 6.12743 6.5265 5.70129 6.52637 5.26712C6.52637 4.8328 6.71971 4.40594 7.08008 4.0845C7.44174 3.76197 7.94029 3.57481 8.46777 3.57474Z" fill="#DADADA" stroke="#DADADA" stroke-width="0.735706"/>
<line y1="-0.5" x2="19.5012" y2="-0.5" transform="matrix(-0.858514 0.51279 -0.547331 -0.836916 16.7419 0)" stroke="#DADADA"/>
</svg>
