<svg width="18" height="18" viewBox="0 0 18 18" fill="none" xmlns="http://www.w3.org/2000/svg">
<g clip-path="url(#clip0_66_35372)">
<mask id="mask0_66_35372" style="mask-type:luminance" maskUnits="userSpaceOnUse" x="0" y="0" width="18" height="18">
<path d="M0 0H18V18H0V0Z" fill="white"/>
</mask>
<g mask="url(#mask0_66_35372)">
<path fill-rule="evenodd" clip-rule="evenodd" d="M10.3894 1.12516C10.5787 1.12151 10.7638 1.18167 10.9148 1.29594C11.0658 1.41021 11.1739 1.57196 11.2219 1.75516L13.5101 10.4469L14.7364 8.30041C14.8101 8.17127 14.9167 8.06392 15.0453 7.98924C15.174 7.91456 15.32 7.8752 15.4688 7.87516H17.1562C17.38 7.87516 17.5946 7.96405 17.7529 8.12228C17.9111 8.28052 18 8.49513 18 8.71891C18 8.94268 17.9111 9.15729 17.7529 9.31553C17.5946 9.47376 17.38 9.56266 17.1562 9.56266H15.9581L13.9511 13.0749C13.868 13.2202 13.7435 13.3374 13.5935 13.4117C13.4435 13.4861 13.2748 13.5141 13.1088 13.4923C12.9429 13.4704 12.7872 13.3997 12.6615 13.2892C12.5358 13.1786 12.4459 13.0331 12.4031 12.8713L10.4794 5.56328L8.136 16.2125C8.0962 16.3935 7.99793 16.5563 7.85637 16.6759C7.71481 16.7955 7.53782 16.8651 7.35274 16.8741C7.16766 16.883 6.98478 16.8308 6.83233 16.7255C6.67988 16.6201 6.56635 16.4676 6.50925 16.2913L3.987 8.49391L3.25575 9.71453C3.18082 9.8398 3.07468 9.94348 2.94769 10.0155C2.8207 10.0874 2.67722 10.1252 2.53125 10.1252H0.84375C0.619974 10.1252 0.405362 10.0363 0.247129 9.87803C0.0888948 9.71979 0 9.50518 0 9.28141C0 9.05763 0.0888948 8.84302 0.247129 8.68478C0.405362 8.52655 0.619974 8.43766 0.84375 8.43766H2.05313L3.49538 6.03466C3.57869 5.89564 3.70028 5.78356 3.8456 5.71182C3.99092 5.64008 4.15383 5.61171 4.31486 5.6301C4.47588 5.64849 4.62819 5.71287 4.7536 5.81553C4.879 5.9182 4.97218 6.05481 5.022 6.20903L7.15725 12.8105L9.58275 1.78778C9.62335 1.60284 9.72498 1.43694 9.87129 1.31675C10.0176 1.19657 10.2001 1.12908 10.3894 1.12516Z" fill="#2C2C2C"/>
</g>
</g>
<defs>
<clipPath id="clip0_66_35372">
<rect width="18" height="18" fill="white"/>
</clipPath>
</defs>
</svg>
