<svg width="20" height="20" viewBox="0 0 20 20" fill="none" xmlns="http://www.w3.org/2000/svg">
<path fill-rule="evenodd" clip-rule="evenodd" d="M13.8904 1.16143C14.0779 0.974262 14.332 0.869141 14.5969 0.869141C14.8618 0.869141 15.1159 0.974262 15.3034 1.16143L18.1254 3.98343L18.1324 3.98943L18.1384 3.99643L18.8384 4.69643C19.0207 4.8849 19.1217 5.13743 19.1196 5.39963C19.1175 5.66183 19.0125 5.91272 18.8272 6.09826C18.6419 6.28381 18.3912 6.38915 18.129 6.39161C17.8668 6.39408 17.6141 6.29346 17.4254 6.11143L16.0104 7.52543L17.7784 9.29343C17.9605 9.48203 18.0613 9.73463 18.0591 9.99683C18.0568 10.259 17.9516 10.5098 17.7662 10.6952C17.5808 10.8807 17.33 10.9858 17.0678 10.9881C16.8056 10.9904 16.553 10.8896 16.3644 10.7074L15.6574 10.0004L10.0004 15.6574C9.72181 15.9361 9.39107 16.1571 9.02706 16.3079C8.66305 16.4587 8.2729 16.5363 7.87889 16.5363C7.48488 16.5363 7.09473 16.4587 6.73072 16.3079C6.36671 16.1571 6.03597 15.9361 5.75739 15.6574L2.63739 18.7784C2.44988 18.9661 2.19551 19.0715 1.93024 19.0716C1.66497 19.0717 1.41053 18.9664 1.22289 18.7789C1.03525 18.5914 0.929781 18.3371 0.929688 18.0718C0.929594 17.8065 1.03488 17.5521 1.22239 17.3644L4.34339 14.2424C3.78098 13.6798 3.46503 12.9169 3.46503 12.1214C3.46503 11.3259 3.78098 10.563 4.34339 10.0004L10.0004 4.34343L9.29339 3.63643C9.11123 3.44783 9.01044 3.19522 9.01272 2.93303C9.01499 2.67083 9.12016 2.42002 9.30557 2.23461C9.49098 2.0492 9.74179 1.94403 10.004 1.94175C10.2662 1.93947 10.5188 2.04027 10.7074 2.22243L12.4754 3.98943L13.8894 2.57543C13.7019 2.3879 13.5966 2.13359 13.5966 1.86843C13.5966 1.60326 13.7019 1.34896 13.8894 1.16143M16.0094 4.69743L14.5964 6.11043L13.8894 5.40343L15.3034 3.98943L16.0094 4.69743ZM7.17139 11.4144L6.46439 10.7074L7.87839 9.29343L8.58539 10.0004C8.76755 10.189 8.86834 10.4416 8.86606 10.7038C8.86379 10.966 8.75862 11.2168 8.57321 11.4022C8.3878 11.5877 8.13699 11.6928 7.87479 11.6951C7.61259 11.6974 7.35999 11.5966 7.17139 11.4144ZM9.29139 9.29343L8.58539 8.58643L10.0004 7.17243L10.7074 7.87943C10.8029 7.97167 10.8791 8.08202 10.9315 8.20402C10.9839 8.32603 11.0115 8.45725 11.0126 8.59003C11.0138 8.72281 10.9885 8.85449 10.9382 8.97738C10.8879 9.10028 10.8137 9.21193 10.7198 9.30582C10.6259 9.39972 10.5142 9.47397 10.3913 9.52425C10.2684 9.57453 10.1368 9.59983 10.004 9.59868C9.87121 9.59752 9.73999 9.56994 9.61799 9.51753C9.49598 9.46512 9.38564 9.38894 9.29339 9.29343" fill="#2563EB"/>
</svg>
