<svg width="10" height="15" viewBox="0 0 10 15" fill="none" xmlns="http://www.w3.org/2000/svg">
<path d="M5 6.5C5.55228 6.5 6 6.05228 6 5.5C6 4.94772 5.55228 4.5 5 4.5C4.44772 4.5 4 4.94772 4 5.5C4 6.05228 4.44772 6.5 5 6.5Z" fill="#555555"/>
<path d="M5 0.5C2.24312 0.5 0 2.64531 0 5.28125C0 6.53656 0.572187 8.20594 1.70062 10.2431C2.60687 11.8787 3.65531 13.3578 4.20062 14.0938C4.29277 14.2195 4.41325 14.3218 4.5523 14.3923C4.69134 14.4627 4.84504 14.4995 5.00094 14.4995C5.15683 14.4995 5.31053 14.4627 5.44958 14.3923C5.58862 14.3218 5.7091 14.2195 5.80125 14.0938C6.34563 13.3578 7.395 11.8787 8.30125 10.2431C9.42781 8.20656 10 6.53719 10 5.28125C10 2.64531 7.75688 0.5 5 0.5ZM5 7.5C4.60444 7.5 4.21776 7.3827 3.88886 7.16294C3.55996 6.94318 3.30362 6.63082 3.15224 6.26537C3.00087 5.89991 2.96126 5.49778 3.03843 5.10982C3.1156 4.72186 3.30608 4.36549 3.58579 4.08579C3.86549 3.80608 4.22186 3.6156 4.60982 3.53843C4.99778 3.46126 5.39991 3.50087 5.76537 3.65224C6.13082 3.80362 6.44318 4.05996 6.66294 4.38886C6.8827 4.71776 7 5.10444 7 5.5C6.99942 6.03026 6.78852 6.53863 6.41357 6.91357C6.03863 7.28852 5.53026 7.49942 5 7.5Z" fill="#555555"/>
</svg>
