<svg width="20" height="20" viewBox="0 0 20 20" fill="none" xmlns="http://www.w3.org/2000/svg">
<path d="M17.7799 2.22061C18.9051 3.34582 19.5372 4.87188 19.5372 6.46311C19.5372 8.05434 18.9051 9.5804 17.7799 10.7056L15.6579 12.8256L10.7079 17.7766C9.57964 18.8867 8.05839 19.506 6.47557 19.4995C4.89275 19.4931 3.37659 18.8614 2.25736 17.7422C1.13813 16.623 0.506495 15.1068 0.50005 13.524C0.493605 11.9412 1.11287 10.4199 2.22295 9.29161L9.29395 2.22061C9.85111 1.66335 10.5126 1.2213 11.2406 0.919711C11.9686 0.618119 12.7489 0.462891 13.5369 0.462891C14.325 0.462891 15.1053 0.618119 15.8333 0.919711C16.5613 1.2213 17.2228 1.66335 17.7799 2.22061ZM12.8299 12.8266L7.17295 7.17061L3.63695 10.7056C2.88678 11.4558 2.46535 12.4732 2.46535 13.5341C2.46535 14.595 2.88678 15.6124 3.63695 16.3626C4.38711 17.1128 5.40456 17.5342 6.46545 17.5342C7.52634 17.5342 8.54378 17.1128 9.29395 16.3626L12.8299 12.8266Z" fill="#C543A0"/>
</svg>
