<svg width="17" height="10" viewBox="0 0 17 10" fill="none" xmlns="http://www.w3.org/2000/svg">
<path fill-rule="evenodd" clip-rule="evenodd" d="M15.5515 0.669002C15.731 0.474008 16.0368 0.467687 16.2242 0.655095C16.3851 0.816006 16.4063 1.06958 16.2744 1.255L10.4587 9.42969C10.0986 9.93586 9.36897 9.99469 8.93243 9.55275L7.62936 8.23357C7.28804 7.88804 7.24435 7.34723 7.52577 6.95139L7.6598 6.76287C7.96203 6.33776 8.54025 6.21635 8.98795 6.484L9.76879 6.95081L15.5515 0.669002ZM10.0845 0.52936C10.264 0.334367 10.5698 0.328046 10.7572 0.515454C10.9181 0.676365 10.9393 0.929935 10.8074 1.11536L4.99027 9.29208C4.63065 9.79757 3.90232 9.85704 3.46545 9.4166L0.236842 6.16154C-0.0798624 5.84225 -0.0788112 5.32699 0.239193 5.00898C0.508577 4.7396 0.928432 4.69226 1.25104 4.8949L4.3018 6.81117L10.0845 0.52936Z" fill="#00C3B9"/>
</svg>
