<svg width="20" height="20" viewBox="0 0 20 20" fill="none" xmlns="http://www.w3.org/2000/svg">
<path d="M5.7516 11.38V18.21C5.7516 18.6184 5.58935 19.0101 5.30054 19.2989C5.01173 19.5878 4.62003 19.75 4.2116 19.75H2.4016C2.19852 19.7513 1.99719 19.7125 1.80919 19.6357C1.62119 19.5589 1.45024 19.4456 1.30618 19.3025C1.16212 19.1594 1.04779 18.9891 0.96977 18.8017C0.891753 18.6142 0.851591 18.4131 0.851595 18.21V11.38C0.850267 11.1761 0.889452 10.9739 0.966876 10.7853C1.0443 10.5966 1.15842 10.4252 1.30262 10.281C1.44681 10.1368 1.61821 10.0227 1.80687 9.94528C1.99552 9.86786 2.19768 9.82867 2.4016 9.83H4.2116C4.41468 9.83 4.61575 9.87016 4.80325 9.94817C4.99074 10.0262 5.16096 10.1405 5.30409 10.2846C5.44722 10.4286 5.56045 10.5996 5.63725 10.7876C5.71405 10.9756 5.75291 11.1769 5.7516 11.38ZM12.4516 1.8V18.21C12.4516 18.4131 12.4114 18.6142 12.3334 18.8017C12.2554 18.9891 12.1411 19.1594 11.997 19.3025C11.8529 19.4456 11.682 19.5589 11.494 19.6357C11.306 19.7125 11.1047 19.7513 10.9016 19.75H9.0916C8.68224 19.75 8.2895 19.5881 7.9991 19.2996C7.7087 19.011 7.54424 18.6193 7.5416 18.21V1.8C7.54422 1.38972 7.70836 0.996997 7.99848 0.706882C8.28859 0.416766 8.68132 0.252622 9.0916 0.25H10.9016C11.3127 0.25 11.7069 0.413303 11.9976 0.703984C12.2883 0.994666 12.4516 1.38891 12.4516 1.8ZM19.1416 6.98V18.21C19.1416 18.6184 18.9793 19.0101 18.6905 19.2989C18.4017 19.5878 18.01 19.75 17.6016 19.75H15.7916C15.5885 19.7513 15.3872 19.7125 15.1992 19.6357C15.0112 19.5589 14.8402 19.4456 14.6962 19.3025C14.5521 19.1594 14.4378 18.9891 14.3598 18.8017C14.2818 18.6142 14.2416 18.4131 14.2416 18.21V6.98C14.2416 6.77645 14.2817 6.5749 14.3596 6.38684C14.4375 6.19879 14.5516 6.02792 14.6956 5.88398C14.8395 5.74005 15.0104 5.62588 15.1984 5.54799C15.3865 5.47009 15.588 5.43 15.7916 5.43H17.6416C18.044 5.44299 18.4255 5.612 18.7054 5.90129C18.9854 6.19058 19.1418 6.57743 19.1416 6.98Z" fill="#C1CC8C"/>
</svg>
