<svg width="22" height="17" viewBox="0 0 22 17" fill="none" xmlns="http://www.w3.org/2000/svg">
<path d="M20.7408 2.92256C19.5273 0.820313 16.8295 0.0883127 14.7333 1.31306C7.77853 5.37581 9.97078 4.06256 2.86678 8.16431C0.764532 9.37781 0.0437821 12.0696 1.25728 14.1718C2.47078 16.2741 5.16778 17.0046 7.26478 15.7813C14.35 11.6473 12.1533 12.9523 19.1313 8.93006C21.2343 7.71806 21.955 5.02481 20.7408 2.92256ZM18.9085 8.35481L13.0953 11.7111C13.4133 11.5273 13.6045 11.2438 13.6923 10.8943C14.4933 10.4271 15.5395 9.82331 17.6658 8.60381C18.2913 8.24531 18.76 7.73156 19.054 7.12706C19.5445 6.11981 19.537 4.88456 18.9393 3.84506C18.853 3.69506 18.7428 3.56906 18.6385 3.43706C19.1478 4.97456 18.526 6.71681 17.0658 7.55381C15.3888 8.51531 14.3823 9.09656 13.6375 9.53081C13.3248 8.25506 12.409 6.76481 11.4288 5.83631C10.0128 6.67256 9.46678 7.00556 5.91778 9.03956C4.47703 9.86531 3.85378 11.5723 4.32628 13.0948C4.30903 13.0858 4.29178 13.0768 4.27453 13.0678C4.19278 12.9666 4.11178 12.8653 4.04503 12.7483C3.44728 11.7081 3.43978 10.4736 3.93028 9.46631C4.22428 8.86181 4.69303 8.34881 5.31853 7.98956C8.44978 6.19481 9.23953 5.73206 10.351 5.07956C9.95053 4.90706 9.57328 4.88306 9.25978 5.06681L15.073 1.71056C18.9843 -0.547687 22.882 6.06056 18.9085 8.35481Z" fill="#00C3B9"/>
</svg>
