<svg width="14" height="17" viewBox="0 0 14 17" fill="none" xmlns="http://www.w3.org/2000/svg">
<path d="M7.00024 0.666504C9.02145 0.666681 10.6663 2.31225 10.6663 4.3335V5.6665H12.0002C12.3095 5.66659 12.6058 5.78969 12.8245 6.0083C13.0433 6.22709 13.1663 6.52408 13.1663 6.8335V15.1665C13.1663 15.4759 13.0433 15.7729 12.8245 15.9917C12.6058 16.2102 12.3094 16.3334 12.0002 16.3335H2.00024C1.6909 16.3335 1.39383 16.2104 1.17505 15.9917C0.956256 15.7729 0.833252 15.4759 0.833252 15.1665V6.8335C0.833252 6.52408 0.956256 6.22709 1.17505 6.0083C1.39384 5.78951 1.69082 5.6665 2.00024 5.6665H3.33325V4.3335C3.33325 2.31214 4.97889 0.666504 7.00024 0.666504ZM7.00024 7.99951C6.42568 7.99951 5.87433 8.22805 5.46802 8.63428C5.06169 9.04061 4.83325 9.59187 4.83325 10.1665C4.83325 10.8621 5.16386 11.4716 5.66626 11.8647V13.9995H8.33325V11.8647C8.83558 11.4713 9.16626 10.8619 9.16626 10.1665C9.16626 9.59194 8.9387 9.04059 8.53247 8.63428C8.12622 8.22803 7.57476 7.9996 7.00024 7.99951ZM7.00024 1.3335C5.34577 1.3335 4.00024 2.67902 4.00024 4.3335V5.6665H10.0002V4.3335C10.0002 2.67913 8.65457 1.33367 7.00024 1.3335Z" fill="#DADADA" stroke="#DADADA"/>
</svg>
