<svg width="18" height="18" viewBox="0 0 18 18" fill="none" xmlns="http://www.w3.org/2000/svg">
<path d="M17.7192 3.13926L14.6835 15.2824C14.2485 17.0131 12.7676 17.7905 11.4718 17.7905C11.4626 17.7905 11.4534 17.7905 11.4534 17.7905C10.1484 17.7813 8.65822 16.9853 8.25099 15.2361L7.45504 11.8579L12.4344 6.87846C12.7954 6.5175 12.7954 5.92523 12.4344 5.56427C12.0735 5.20331 11.4811 5.20331 11.1201 5.56427L6.14074 10.5435L2.76257 9.7477C1.01331 9.34047 0.217345 7.8504 0.208089 6.55465C0.198834 5.24965 0.976304 3.75028 2.71631 3.31528L14.8593 0.279503C15.6645 0.0758856 16.5068 0.307197 17.0991 0.899539C17.6914 1.49188 17.9228 2.33405 17.7192 3.13926Z" fill="#A4A4A4"/>
</svg>
