<svg width="18" height="18" viewBox="0 0 18 18" fill="none" xmlns="http://www.w3.org/2000/svg">
<path d="M9 0C7.21997 0 5.47991 0.527841 3.99987 1.51677C2.51983 2.50571 1.36628 3.91131 0.685088 5.55585C0.00389956 7.20038 -0.17433 9.00998 0.172936 10.7558C0.520203 12.5016 1.37737 14.1053 2.63604 15.364C3.89471 16.6226 5.49836 17.4798 7.24419 17.8271C8.99002 18.1743 10.7996 17.9961 12.4442 17.3149C14.0887 16.6337 15.4943 15.4802 16.4832 14.0001C17.4722 12.5201 18 10.78 18 9C18 7.8181 17.7672 6.64778 17.3149 5.55585C16.8626 4.46392 16.1997 3.47177 15.364 2.63604C14.5282 1.80031 13.5361 1.13738 12.4442 0.685084C11.3522 0.232792 10.1819 0 9 0ZM14.1084 7.4133L8.7084 12.3633C8.53743 12.5201 8.31254 12.6048 8.08063 12.5997C7.84872 12.5947 7.62771 12.5003 7.4637 12.3363L4.7637 9.6363C4.67774 9.55328 4.60918 9.45397 4.56201 9.34416C4.51484 9.23436 4.49002 9.11626 4.48898 8.99676C4.48794 8.87726 4.51071 8.75875 4.55596 8.64814C4.60122 8.53753 4.66804 8.43705 4.75255 8.35254C4.83705 8.26804 4.93754 8.20121 5.04814 8.15596C5.15875 8.11071 5.27726 8.08793 5.39676 8.08897C5.51626 8.09001 5.63436 8.11484 5.74417 8.16201C5.85397 8.20917 5.95328 8.27774 6.0363 8.3637L8.127 10.4544L12.8916 6.0867C13.0675 5.92534 13.3003 5.84048 13.5388 5.85077C13.7773 5.86107 14.0019 5.96568 14.1633 6.1416C14.3247 6.31752 14.4095 6.55033 14.3992 6.78882C14.3889 7.02731 14.2843 7.25194 14.1084 7.4133Z" fill="#61D285"/>
</svg>
