<svg width="18" height="18" viewBox="0 0 18 18" fill="none" xmlns="http://www.w3.org/2000/svg">
<path d="M8.9974 0.666016C13.5999 0.666016 17.3307 4.39685 17.3307 8.99935C17.3307 13.6018 13.5999 17.3327 8.9974 17.3327C4.3949 17.3327 0.664062 13.6018 0.664062 8.99935C0.664062 4.39685 4.3949 0.666016 8.9974 0.666016ZM8.9974 3.99935C8.77638 3.99935 8.56442 4.08715 8.40814 4.24343C8.25186 4.39971 8.16406 4.61167 8.16406 4.83268V8.99935C8.16411 9.22034 8.25194 9.43227 8.40823 9.58852L10.9082 12.0885C11.0654 12.2403 11.2759 12.3243 11.4944 12.3224C11.7129 12.3205 11.9219 12.2329 12.0764 12.0784C12.2309 11.9239 12.3186 11.7148 12.3205 11.4963C12.3224 11.2779 12.2384 11.0674 12.0866 10.9102L9.83073 8.65435V4.83268C9.83073 4.61167 9.74293 4.39971 9.58665 4.24343C9.43037 4.08715 9.21841 3.99935 8.9974 3.99935Z" fill="#FFBD16"/>
</svg>
