<svg width="18" height="20" viewBox="0 0 18 20" fill="none" xmlns="http://www.w3.org/2000/svg">
<path d="M0.665365 15.5004H5.70703V16.6463C5.70703 17.3148 5.44144 17.956 4.9687 18.4288C4.49595 18.9015 3.85476 19.1671 3.1862 19.1671C2.51763 19.1671 1.87645 18.9015 1.4037 18.4288C0.930951 17.956 0.665365 17.3148 0.665365 16.6463V15.5004ZM4.33203 4.61044C6.16536 4.61044 7.08203 7.25044 7.08203 9.08377C7.08203 10.0004 6.6237 10.9171 6.16536 12.2921L5.70703 13.6671H0.665365C0.665365 12.7504 0.207031 11.3754 0.207031 9.08377C0.207031 6.79211 2.03853 4.61044 4.33203 4.61044ZM15.3815 11.9236L15.1826 13.052C15.0665 13.7105 14.6936 14.2959 14.1459 14.6794C13.5982 15.0629 12.9206 15.2132 12.2621 15.0971C11.6036 14.981 11.0182 14.6081 10.6347 14.0604C10.2512 13.5127 10.1009 12.8351 10.217 12.1766L10.4169 11.0491L15.3815 11.9236ZM13.6619 0.563355C15.9205 0.961188 17.345 3.42702 16.9472 5.68386C16.5494 7.94161 15.8591 9.21577 15.7005 10.1187L10.7349 9.24327L10.5223 7.8096C10.3096 6.37594 10.0181 5.39327 10.1767 4.49127C10.4948 2.68544 11.856 0.245272 13.6619 0.563355Z" fill="#2563EB"/>
</svg>
