<svg width="24" height="24" viewBox="0 0 24 24" fill="none" xmlns="http://www.w3.org/2000/svg">
<path d="M20.7006 14.7361L15.6767 19.7781C14.2698 21.1901 12.3124 22 10.3061 22C8.33071 22 6.49122 21.244 5.12535 19.873C2.24471 16.981 2.28671 12.234 5.2203 9.29102L10.9436 3.54712C11.9377 2.54912 13.2587 2 14.6655 2C16.0724 2 17.3933 2.54912 18.3875 3.54712C20.4378 5.60512 20.4378 8.95201 18.3875 11.01L12.6372 16.781C11.4551 17.969 9.38986 17.969 8.20784 16.781C6.98884 15.558 6.98884 13.567 8.20784 12.344L13.2587 7.2749C13.6474 6.8819 14.2798 6.88195 14.6715 7.27295C15.0622 7.66295 15.0632 8.29601 14.6735 8.68701L9.62263 13.7561C9.17999 14.2001 9.17999 14.9239 9.62263 15.3679C10.0513 15.7979 10.7937 15.7979 11.2213 15.3679L16.9716 9.59692C18.2456 8.31792 18.2456 6.23801 16.9716 4.95801C15.7396 3.72201 13.5904 3.72201 12.3584 4.95801L6.63509 10.7019C4.51384 12.8299 4.4709 16.383 6.5402 18.46C7.52839 19.452 8.86627 19.999 10.3061 19.999C11.7849 19.999 13.2267 19.403 14.2618 18.365L19.2857 13.323C19.6754 12.93 20.3069 12.931 20.6985 13.321C21.0892 13.712 21.0902 14.3461 20.7006 14.7361Z" fill="#A4A4A4"/>
</svg>
