<svg width="17" height="17" viewBox="0 0 17 17" fill="none" xmlns="http://www.w3.org/2000/svg">
<path d="M7.74997 0.166504C9.07994 0.166415 10.3831 0.540759 11.5102 1.2467C12.6374 1.95263 13.543 2.96164 14.1235 4.15825C14.704 5.35485 14.9358 6.69071 14.7926 8.01294C14.6493 9.33517 14.1366 10.5904 13.3133 11.6348L16.3566 14.6782C16.5084 14.8353 16.5924 15.0458 16.5905 15.2643C16.5886 15.4828 16.501 15.6918 16.3465 15.8464C16.192 16.0009 15.983 16.0885 15.7645 16.0904C15.546 16.0923 15.3355 16.0083 15.1783 15.8565L12.135 12.8132C11.2478 13.5123 10.2064 13.9892 9.09748 14.2039C7.98859 14.4187 6.8444 14.3652 5.7604 14.0478C4.67639 13.7305 3.68399 13.1585 2.866 12.3796C2.04801 11.6007 1.42814 10.6375 1.05812 9.57032C0.688092 8.50315 0.578639 7.36295 0.738891 6.24487C0.899142 5.12679 1.32445 4.06325 1.97933 3.14297C2.63421 2.22268 3.49967 1.47236 4.50351 0.954582C5.50735 0.436807 6.62046 0.1666 7.74997 0.166504ZM7.74997 1.83317C6.31338 1.83317 4.93563 2.40385 3.91981 3.41968C2.90398 4.4355 2.3333 5.81325 2.3333 7.24984C2.3333 8.68643 2.90398 10.0642 3.91981 11.08C4.93563 12.0958 6.31338 12.6665 7.74997 12.6665C9.18656 12.6665 10.5643 12.0958 11.5801 11.08C12.596 10.0642 13.1666 8.68643 13.1666 7.24984C13.1666 5.81325 12.596 4.4355 11.5801 3.41968C10.5643 2.40385 9.18656 1.83317 7.74997 1.83317ZM7.74997 2.6665C8.96554 2.6665 10.1313 3.14939 10.9909 4.00893C11.8504 4.86847 12.3333 6.03426 12.3333 7.24984C12.3333 8.46541 11.8504 9.6312 10.9909 10.4907C10.1313 11.3503 8.96554 11.8332 7.74997 11.8332C6.53439 11.8332 5.3686 11.3503 4.50906 10.4907C3.64952 9.6312 3.16663 8.46541 3.16663 7.24984C3.16663 6.03426 3.64952 4.86847 4.50906 4.00893C5.3686 3.14939 6.53439 2.6665 7.74997 2.6665Z" fill="#DADADA"/>
</svg>
