<svg width="19" height="18" viewBox="0 0 19 18" fill="none" xmlns="http://www.w3.org/2000/svg">
<path fill-rule="evenodd" clip-rule="evenodd" d="M9.5 0C9.6498 9.36103e-05 9.79766 0.0338405 9.93267 0.0987475C10.0677 0.163655 10.1864 0.258063 10.28 0.375L14.28 5.375C14.367 5.47687 14.4326 5.59517 14.473 5.72289C14.5134 5.8506 14.5277 5.98513 14.5151 6.11849C14.5025 6.25184 14.4632 6.38131 14.3996 6.49919C14.336 6.61708 14.2494 6.72099 14.1448 6.80475C14.0403 6.88851 13.92 6.95041 13.7911 6.98679C13.6622 7.02316 13.5273 7.03327 13.3944 7.0165C13.2615 6.99974 13.1333 6.95644 13.0174 6.88919C12.9016 6.82194 12.8005 6.7321 12.72 6.625L10.5 3.85V11C10.5 11.2652 10.3946 11.5196 10.2071 11.7071C10.0196 11.8946 9.76522 12 9.5 12C9.23478 12 8.98043 11.8946 8.79289 11.7071C8.60536 11.5196 8.5 11.2652 8.5 11V3.85L6.28 6.626C6.19954 6.7331 6.09839 6.82294 5.98255 6.89019C5.86671 6.95744 5.73853 7.00074 5.60564 7.0175C5.47274 7.03427 5.33783 7.02416 5.20891 6.98779C5.08 6.95141 4.9597 6.88951 4.85517 6.80575C4.75064 6.72199 4.664 6.61808 4.6004 6.50019C4.53679 6.38231 4.49752 6.25284 4.48491 6.11949C4.47231 5.98613 4.48662 5.8516 4.527 5.72389C4.56739 5.59617 4.63302 5.47787 4.72 5.376L8.72 0.376C8.81353 0.25888 8.93218 0.164281 9.06719 0.0991981C9.2022 0.0341153 9.35012 0.000213602 9.5 0ZM6.5 11V10H2.5C1.96957 10 1.46086 10.2107 1.08579 10.5858C0.710714 10.9609 0.5 11.4696 0.5 12V16C0.5 16.5304 0.710714 17.0391 1.08579 17.4142C1.46086 17.7893 1.96957 18 2.5 18H16.5C17.0304 18 17.5391 17.7893 17.9142 17.4142C18.2893 17.0391 18.5 16.5304 18.5 16V12C18.5 11.4696 18.2893 10.9609 17.9142 10.5858C17.5391 10.2107 17.0304 10 16.5 10H12.5V11C12.5 11.7956 12.1839 12.5587 11.6213 13.1213C11.0587 13.6839 10.2956 14 9.5 14C8.70435 14 7.94129 13.6839 7.37868 13.1213C6.81607 12.5587 6.5 11.7956 6.5 11ZM14.5 13C14.2348 13 13.9804 13.1054 13.7929 13.2929C13.6054 13.4804 13.5 13.7348 13.5 14C13.5 14.2652 13.6054 14.5196 13.7929 14.7071C13.9804 14.8946 14.2348 15 14.5 15H14.51C14.7752 15 15.0296 14.8946 15.2171 14.7071C15.4046 14.5196 15.51 14.2652 15.51 14C15.51 13.7348 15.4046 13.4804 15.2171 13.2929C15.0296 13.1054 14.7752 13 14.51 13H14.5Z" fill="#A4A4A4"/>
</svg>
