<svg width="18" height="18" viewBox="0 0 18 18" fill="none" xmlns="http://www.w3.org/2000/svg">
<path d="M14.1954 0.751789C13.953 0.509539 13.6611 0.322451 13.3398 0.203296C13.0185 0.084142 12.6752 0.0357278 12.3335 0.061359C11.9917 0.0869902 11.6595 0.186063 11.3596 0.351814C11.0596 0.517565 10.799 0.746091 10.5954 1.02179C9.98971 0.913891 9.36541 1.00203 8.81328 1.2734C8.26115 1.54476 7.81 1.9852 7.52543 2.53064C7.24086 3.07608 7.13773 3.69808 7.23103 4.30618C7.32432 4.91428 7.60919 5.47675 8.04419 5.91179L9.25619 7.12619L7.97459 8.40779L9.61379 10.047L10.8966 8.76539L12.1098 9.97859C12.5448 10.4136 13.1073 10.6985 13.7154 10.7918C14.3235 10.885 14.9455 10.7819 15.4909 10.4973C16.0364 10.2128 16.4768 9.76162 16.7482 9.2095C17.0195 8.65737 17.1077 8.03306 16.9998 7.42739C17.2755 7.22382 17.504 6.96316 17.6698 6.6632C17.8355 6.36324 17.9346 6.03104 17.9602 5.6893C17.9858 5.34755 17.9374 5.00429 17.8183 4.68296C17.6991 4.36164 17.512 4.0698 17.2698 3.82739L16.5522 3.10859L17.181 2.47979C17.3934 2.2614 17.5113 1.96816 17.5092 1.6635C17.5071 1.35885 17.3852 1.06726 17.1697 0.851832C16.9543 0.6364 16.6627 0.514441 16.3581 0.512337C16.0534 0.510233 15.7602 0.628153 15.5418 0.840589L14.913 1.46939L14.1954 0.751789ZM14.5194 5.00699C14.6321 5.11949 14.6954 5.27215 14.6955 5.43136C14.6956 5.59058 14.6325 5.74332 14.52 5.85599C14.4075 5.96865 14.2548 6.03201 14.0956 6.03212C13.9364 6.03223 13.7837 5.96909 13.671 5.85659L12.1446 4.32899C12.0353 4.21583 11.9748 4.06427 11.9762 3.90695C11.9776 3.74963 12.0407 3.59914 12.1519 3.4879C12.2631 3.37665 12.4136 3.31355 12.5709 3.31218C12.7283 3.31082 12.8798 3.37129 12.993 3.48059L14.5194 5.00699ZM1.82339 8.04299C2.36573 7.50073 3.10126 7.19609 3.86819 7.19609C4.63512 7.19609 5.37065 7.50073 5.91299 8.04299L9.97859 12.1098C10.4136 12.5448 10.6985 13.1073 10.7918 13.7154C10.885 14.3235 10.7819 14.9455 10.4973 15.4909C10.2128 16.0364 9.76162 16.4768 9.2095 16.7482C8.65737 17.0195 8.03306 17.1077 7.42739 16.9998C7.22382 17.2755 6.96316 17.504 6.6632 17.6698C6.36324 17.8355 6.03104 17.9346 5.6893 17.9602C5.34755 17.9858 5.00429 17.9374 4.68296 17.8183C4.36164 17.6991 4.0698 17.512 3.82739 17.2698L3.10859 16.5522L2.45939 17.2014C2.35308 17.3144 2.22514 17.405 2.08318 17.4677C1.94121 17.5304 1.78811 17.5639 1.63293 17.5664C1.47776 17.5688 1.32368 17.54 1.17984 17.4817C1.03599 17.4235 0.905302 17.337 0.795525 17.2273C0.685748 17.1176 0.599115 16.9869 0.540764 16.8431C0.482412 16.6993 0.45353 16.5453 0.455831 16.3901C0.458131 16.2349 0.491566 16.0818 0.554154 15.9398C0.616742 15.7978 0.707208 15.6698 0.820189 15.5634L1.46939 14.913L0.751789 14.1954C0.509539 13.953 0.322451 13.6611 0.203296 13.3398C0.084142 13.0185 0.0357278 12.6752 0.061359 12.3335C0.0869902 11.9917 0.186063 11.6595 0.351814 11.3596C0.517565 11.0596 0.74609 10.799 1.02179 10.5954C0.939101 10.1367 0.968953 9.66487 1.10878 9.2203C1.24861 8.77573 1.49304 8.37173 1.82339 8.04299ZM5.35739 15.0198C5.46987 14.9073 5.53306 14.7547 5.53306 14.5956C5.53306 14.4365 5.46987 14.2839 5.35739 14.1714L3.82979 12.645C3.71663 12.5357 3.56507 12.4752 3.40775 12.4766C3.25043 12.478 3.09994 12.5411 2.9887 12.6523C2.87745 12.7635 2.81435 12.914 2.81298 13.0713C2.81162 13.2287 2.87209 13.3802 2.98139 13.4934L4.50779 15.0198C4.56352 15.0757 4.62973 15.12 4.70263 15.1502C4.77552 15.1805 4.85367 15.1961 4.93259 15.1961C5.01151 15.1961 5.08965 15.1805 5.16255 15.1502C5.23544 15.12 5.30165 15.0757 5.35739 15.0198Z" fill="#EA580C"/>
</svg>
